<svg width="853.3333333333334" height="853.3333333333334" version="1.1" xmlns="http://www.w3.org/2000/svg" xmlns:xlink="http://www.w3.org/1999/xlink"><g transform="translate(426.6666666666667,426.6666666666667)"><g class="group"><path d="M2.2125285504595518e-14,-361.33333333333337A361.33333333333337,361.33333333333337 0 0,1 346.8280280378058,-101.35135295192089L327.63090471467996,-95.74149946749722A341.33333333333337,341.33333333333337 0 0,0 2.0900638705448164e-14,-341.33333333333337Z" style="fill: rgb(0, 109, 44); stroke: rgb(0, 109, 44);"></path><text dy=".35em" transform="rotate(-53.144805618612274)translate(367.33333333333337)" style="font-size: 16px;">Beijing</text></g><g class="group"><path d="M350.60357573185405,-87.40086076129862A361.33333333333337,361.33333333333337 0 0,1 352.1554852351774,-80.92151751267737L332.6634842074001,-76.44246672784283A341.33333333333337,341.33333333333337 0 0,0 331.19747375407616,-82.56317474130054Z" style="fill: rgb(49, 163, 84); stroke: rgb(49, 163, 84);"></path><text dy=".35em" transform="rotate(-13.46953570646943)translate(367.33333333333337)" style="font-size: 16px;">Tianjin</text></g><g class="group"><path d="M355.10979601494176,-66.77432554510959A361.33333333333337,361.33333333333337 0 0,1 355.9568908426145,-62.1004801868457L336.25447991036646,-58.66318423554428A341.33333333333337,341.33333333333337 0 0,0 335.4542722502771,-63.07832966622898Z" style="fill: rgb(116, 196, 118); stroke: rgb(116, 196, 118);"></path><text dy=".35em" transform="rotate(-10.272860116138418)translate(367.33333333333337)" style="font-size: 16px;">Hebei</text></g><g class="group"><path d="M358.15552015199273,-47.816327362453585A361.33333333333337,361.33333333333337 0 0,1 358.15552015199273,-47.816327362453585L338.3314138705171,-45.16966717633992A341.33333333333337,341.33333333333337 0 0,0 338.3314138705171,-45.16966717633992Z" style="fill: rgb(186, 228, 179); stroke: rgb(186, 228, 179);"></path><text dy=".35em" transform="rotate(-7.604428876039194)translate(367.33333333333337)" style="font-size: 16px;">Shanxi</text></g><g class="group"><path d="M359.78117703156386,-33.455678614554024A361.33333333333337,361.33333333333337 0 0,1 359.78117703156386,-33.455678614554024L339.8670897419939,-31.603888285335167A341.33333333333337,341.33333333333337 0 0,0 339.8670897419939,-31.603888285335167Z" style="fill: rgb(237, 248, 233); stroke: rgb(237, 248, 233);"></path><text dy=".35em" transform="rotate(-5.312597695515905)translate(367.33333333333337)" style="font-size: 16px;">Inner Mongolia</text></g><g class="group"><path d="M360.8312607771088,-19.041507917701978A361.33333333333337,361.33333333333337 0 0,1 360.8600399624277,-18.48808632857634L340.8862370124778,-17.464760517031525A341.33333333333337,341.33333333333337 0 0,0 340.8590507709958,-17.987549914877146Z" style="fill: rgb(222, 45, 38); stroke: rgb(222, 45, 38);"></path><text dy=".35em" transform="rotate(-2.9768298413754053)translate(367.33333333333337)" style="font-size: 16px;">Liaoning</text></g><g class="group"><path d="M361.3107166828073,-4.042745098811155A361.33333333333337,361.33333333333337 0 0,1 361.3107166828073,-4.042745098811155L341.3119685269324,-3.8189769199101686A341.33333333333337,341.33333333333337 0 0,0 341.3119685269324,-3.8189769199101686Z" style="fill: rgb(252, 146, 114); stroke: rgb(252, 146, 114);"></path><text dy=".35em" transform="rotate(-0.6410619872349343)translate(367.33333333333337)" style="font-size: 16px;">Jilin</text></g><g class="group"><path d="M361.1833733320032,10.409063660705836A361.33333333333337,361.33333333333337 0 0,1 361.05375865627275,14.211303175843815L341.0692332693942,13.424699679025892A341.33333333333337,341.33333333333337 0 0,0 341.1916737010805,9.832916225611418Z" style="fill: rgb(254, 224, 210); stroke: rgb(254, 224, 210);"></path><text dy=".35em" transform="rotate(1.9524017938395417)translate(367.33333333333337)" style="font-size: 16px;">Heilongjiang</text></g><g class="group"><path d="M360.1966536077683,28.638235063340694A361.33333333333337,361.33333333333337 0 0,1 358.4297664099136,45.71520894748879L338.5904804462653,43.184846828624096A341.33333333333337,341.33333333333337 0 0,0 340.2595694597369,27.05309290116317Z" style="fill: rgb(8, 69, 148); stroke: rgb(8, 69, 148);"></path><text dy=".35em" transform="rotate(5.907149256922722)translate(367.33333333333337)" style="font-size: 16px;">Shanghai</text></g><g class="group"><path d="M356.31494005924213,60.012009367762964A361.33333333333337,361.33333333333337 0 0,1 346.72776620424094,101.69382439851023L327.53619242909843,96.065014929958A341.33333333333337,341.33333333333337 0 0,0 336.59271090467155,56.69031143227793Z" style="fill: rgb(33, 113, 181); stroke: rgb(33, 113, 181);"></path><text dy=".35em" transform="rotate(12.953229802868634)translate(367.33333333333337)" style="font-size: 16px;">Jiangsu</text></g><g class="group"><path d="M342.38375264501127,115.47789270028073A361.33333333333337,361.33333333333337 0 0,1 337.128314654758,130.02414097320658L318.46807583622893,122.82723280125788A341.33333333333337,341.33333333333337 0 0,0 323.4326224248077,109.08612742166741Z" style="fill: rgb(66, 146, 198); stroke: rgb(66, 146, 198);"></path><text dy=".35em" transform="rotate(19.864364504815285)translate(367.33333333333337)" style="font-size: 16px;">Zhejiang</text></g><g class="group"><path d="M331.6590691357623,143.40167236743594A361.33333333333337,361.33333333333337 0 0,1 329.09474210064,149.19258862118807L310.87916596960827,140.93469626208173A341.33333333333337,341.33333333333337 0 0,0 313.30155608396734,135.46431042827896Z" style="fill: rgb(107, 174, 214); stroke: rgb(107, 174, 214);"></path><text dy=".35em" transform="rotate(23.884666936115963)translate(367.33333333333337)" style="font-size: 16px;">Anhui</text></g><g class="group"><path d="M322.8653891239848,162.23353008424516A361.33333333333337,361.33333333333337 0 0,1 319.4411365280289,168.8761027246278L301.7598928087653,159.52871696496206A341.33333333333337,341.33333333333337 0 0,0 304.9946111281923,153.25381439692532Z" style="fill: rgb(158, 202, 225); stroke: rgb(158, 202, 225);"></path><text dy=".35em" transform="rotate(27.271148956473255)translate(367.33333333333337)" style="font-size: 16px;">Fujian</text></g><g class="group"><path d="M312.43237478271897,181.51525821651592A361.33333333333337,361.33333333333337 0 0,1 310.5385837264603,184.73647662262596L293.3501012323758,174.51121038890128A341.33333333333337,341.33333333333337 0 0,0 295.13906990544666,171.46828820453166Z" style="fill: rgb(198, 219, 239); stroke: rgb(198, 219, 239);"></path><text dy=".35em" transform="rotate(30.45175627759572)translate(367.33333333333337)" style="font-size: 16px;">Jiangxi</text></g><g class="group"><path d="M302.9026972817046,197.00693834798264A361.33333333333337,361.33333333333337 0 0,1 301.8625871740011,198.59696936860948L285.1543258913073,187.60451718953513A341.33333333333337,341.33333333333337 0 0,0 286.1368653288427,186.10249526599097Z" style="fill: rgb(239, 243, 255); stroke: rgb(239, 243, 255);"></path><text dy=".35em" transform="rotate(33.19048619548242)translate(367.33333333333337)" style="font-size: 16px;">Shandong</text></g><g class="group"><path d="M293.6793687246866,210.50939685260468A361.33333333333337,361.33333333333337 0 0,1 293.38389940189074,210.92099314558294L277.1449381803839,199.24639942903778A341.33333333333337,341.33333333333337 0 0,0 277.42405311261905,198.85758521869667Z" style="fill: rgb(140, 45, 4); stroke: rgb(140, 45, 4);"></path><text dy=".35em" transform="rotate(35.67312807285752)translate(367.33333333333337)" style="font-size: 16px;">Henan</text></g><g class="group"><path d="M284.7146334931074,222.48450564626594A361.33333333333337,361.33333333333337 0 0,1 268.41658858604666,241.8973186077241L253.5595818377415,228.5081681312818A341.33333333333337,341.33333333333337 0 0,0 268.95552093813836,210.16986511233978Z" style="fill: rgb(217, 72, 1); stroke: rgb(217, 72, 1);"></path><text dy=".35em" transform="rotate(40.015169977712105)translate(367.33333333333337)" style="font-size: 16px;">Hubei</text></g><g class="group"><path d="M258.52857123209867,252.4376272160462A361.33333333333337,361.33333333333337 0 0,1 255.9355375120228,255.06622358950187L241.7693638489957,240.9481669332564A341.33333333333337,341.33333333333337 0 0,0 244.21887171740687,238.46506482401412Z" style="fill: rgb(241, 105, 19); stroke: rgb(241, 105, 19);"></path><text dy=".35em" transform="rotate(44.60978498918894)translate(367.33333333333337)" style="font-size: 16px;">Hunan</text></g><g class="group"><path d="M245.53088792550454,265.09688955604724A361.33333333333337,361.33333333333337 0 1,1 -214.4921977105853,-290.7832094517512L-202.61993584468573,-274.6881978584808A341.33333333333337,341.33333333333337 0 1,0 231.94061737612236,250.42362998652436Z" style="fill: rgb(253, 141, 60); stroke: rgb(253, 141, 60);"></path><text dy=".35em" transform="rotate(140.3902671286679)translate(367.33333333333337)rotate(180)" style="font-size: 16px; text-anchor: end;">Guangdong</text></g><g class="group"><path d="M-202.69239989173627,-299.12801407408546A361.33333333333337,361.33333333333337 0 0,1 -199.53542218036876,-301.2430797098579L-188.49102611872473,-284.56910850820526A341.33333333333337,341.33333333333337 0 0,0 -191.4732633663634,-282.57111292607334Z" style="fill: rgb(253, 174, 107); stroke: rgb(253, 174, 107);"></path><text dy=".35em" transform="rotate(236.1792855361639)translate(367.33333333333337)rotate(180)" style="font-size: 16px; text-anchor: end;">Guangxi</text></g><g class="group"><path d="M-187.32930493933932,-308.9814060566134A361.33333333333337,361.33333333333337 0 0,1 -187.32930493933932,-308.9814060566134L-176.96052422313974,-291.87911420846143A341.33333333333337,341.33333333333337 0 0,0 -176.96052422313974,-291.87911420846143Z" style="fill: rgb(253, 208, 162); stroke: rgb(253, 208, 162);"></path><text dy=".35em" transform="rotate(238.7723967643479)translate(367.33333333333337)rotate(180)" style="font-size: 16px; text-anchor: end;">Hainan</text></g><g class="group"><path d="M-174.8235007718607,-316.2254280661962A361.33333333333337,361.33333333333337 0 0,1 -173.21719409894888,-317.10815417813666L-163.62952652889638,-299.5560423232582A341.33333333333337,341.33333333333337 0 0,0 -165.14692323836286,-298.7221755902075Z" style="fill: rgb(254, 230, 206); stroke: rgb(254, 230, 206);"></path><text dy=".35em" transform="rotate(241.2095453545263)translate(367.33333333333337)rotate(180)" style="font-size: 16px; text-anchor: end;">Hong Kong</text></g><g class="group"><path d="M-160.3976948684488,-323.7813417395539A361.33333333333337,361.33333333333337 0 0,1 -158.83516790754314,-324.5507159344443L-150.04355344771605,-306.58665416685517A341.33333333333337,341.33333333333337 0 0,0 -151.51959367646825,-305.85986525950483Z" style="fill: rgb(84, 39, 143); stroke: rgb(84, 39, 143);"></path><text dy=".35em" transform="rotate(243.7847806332158)translate(367.33333333333337)rotate(180)" style="font-size: 16px; text-anchor: end;">Chongqing</text></g><g class="group"><path d="M-145.7295496747176,-330.6428225886384A361.33333333333337,361.33333333333337 0 0,1 -136.60367131641684,-334.5163893752504L-129.042582498165,-316.00072206665726A341.33333333333337,341.33333333333337 0 0,0 -137.6633384381096,-312.3415593457249Z" style="fill: rgb(117, 107, 177); stroke: rgb(117, 107, 177);"></path><text dy=".35em" transform="rotate(247.00073814659714)translate(367.33333333333337)rotate(180)" style="font-size: 16px; text-anchor: end;">Sichuan</text></g><g class="group"><path d="M-123.11731526401175,-339.7115018069888A361.33333333333337,361.33333333333337 0 0,1 -122.34292658218793,-339.9911559042135L-115.57117787837679,-321.1724572379286A341.33333333333337,341.33333333333337 0 0,0 -116.30270371803324,-320.9082821497754Z" style="fill: rgb(158, 154, 200); stroke: rgb(158, 154, 200);"></path><text dy=".35em" transform="rotate(250.14388631512713)translate(367.33333333333337)rotate(180)" style="font-size: 16px; text-anchor: end;">Guizhou</text></g><g class="group"><path d="M-108.64904533618471,-344.6116114197452A361.33333333333337,361.33333333333337 0 0,1 -107.4403261146491,-344.9903681295402L-101.49344459538807,-325.89496029949186A341.33333333333337,341.33333333333337 0 0,0 -102.63526053897893,-325.53716798322796Z" style="fill: rgb(203, 201, 226); stroke: rgb(203, 201, 226);"></path><text dy=".35em" transform="rotate(252.60142152186376)translate(367.33333333333337)rotate(180)" style="font-size: 16px; text-anchor: end;">Yunnan</text></g><g class="group"><path d="M-93.5584501911455,-349.01087973816624A361.33333333333337,361.33333333333337 0 0,1 -93.5584501911455,-349.01087973816624L-88.37993818794556,-329.692934365205A341.33333333333337,341.33333333333337 0 0,0 -88.37993818794556,-329.692934365205Z" style="fill: rgb(189, 0, 38); stroke: rgb(189, 0, 38);"></path><text dy=".35em" transform="rotate(254.9936793849406)translate(367.33333333333337)rotate(180)" style="font-size: 16px; text-anchor: end;">Shaanxi</text></g><g class="group"><path d="M-79.52690070540763,-352.47304839089475A361.33333333333337,361.33333333333337 0 0,1 -79.52690070540763,-352.47304839089475L-75.1250427327836,-332.9634700666755A341.33333333333337,341.33333333333337 0 0,0 -75.1250427327836,-332.9634700666755Z" style="fill: rgb(240, 59, 32); stroke: rgb(240, 59, 32);"></path><text dy=".35em" transform="rotate(257.28551056546394)translate(367.33333333333337)rotate(180)" style="font-size: 16px; text-anchor: end;">Gansu</text></g><g class="group"><path d="M-65.36812514337512,-355.3713353564379A361.33333333333337,361.33333333333337 0 0,1 -65.36812514337512,-355.3713353564379L-61.74996323507023,-335.70133524445794A341.33333333333337,341.33333333333337 0 0,0 -61.74996323507023,-335.70133524445794Z" style="fill: rgb(253, 141, 60); stroke: rgb(253, 141, 60);"></path><text dy=".35em" transform="rotate(259.5773417459872)translate(367.33333333333337)rotate(180)" style="font-size: 16px; text-anchor: end;">Qinghai</text></g><g class="group"><path d="M-51.10477452556954,-357.7011039939191A361.33333333333337,361.33333333333337 0 0,1 -43.256010900395346,-358.73485375519715L-40.86176675461701,-338.87868103811985A341.33333333333337,341.33333333333337 0 0,0 -48.27609696880369,-337.9021498983147Z" style="fill: rgb(254, 204, 92); stroke: rgb(254, 204, 92);"></path><text dy=".35em" transform="rotate(262.49683969247036)translate(367.33333333333337)rotate(180)" style="font-size: 16px; text-anchor: end;">Ningxia</text></g><g class="group"><path d="M-28.87584275419353,-360.1776832106799A361.33333333333337,361.33333333333337 0 0,1 -28.87584275419353,-360.1776832106799L-27.277548874810126,-340.2416490846275A341.33333333333337,341.33333333333337 0 0,0 -27.277548874810126,-340.2416490846275Z" style="fill: rgb(255, 255, 178); stroke: rgb(255, 255, 178);"></path><text dy=".35em" transform="rotate(265.41633763895356)translate(367.33333333333337)rotate(180)" style="font-size: 16px; text-anchor: end;">Xinjiang</text></g><g class="group"><path d="M-14.449479419436262,-361.0443052068334A361.33333333333337,361.33333333333337 0 0,1 -14.449479419436262,-361.0443052068334L-13.649692735703628,-341.06030307361385A341.33333333333337,341.33333333333337 0 0,0 -13.649692735703628,-341.06030307361385Z" style="fill: rgb(240, 240, 240); stroke: rgb(240, 240, 240);"></path><text dy=".35em" transform="rotate(267.70816881947684)translate(367.33333333333337)rotate(180)" style="font-size: 16px; text-anchor: end;">International</text></g><path class="chord" d="M231.94061737612236,250.42362998652436A341.33333333333337,341.33333333333337 0 0,1 -324.92312629188433,-104.5629305497538Q 0,0 231.94061737612236,250.42362998652436Z" style="stroke: rgb(177, 98, 42); fill: rgb(253, 141, 60);"><title>Guangdong -&gt; Guangdong: $2307.76 million, 52.51% of all donations</title></path><path class="chord" d="M2.0900638705448164e-14,-341.33333333333337A341.33333333333337,341.33333333333337 0 0,1 259.4003543586526,-221.8555850165822Q 0,0 2.0900638705448164e-14,-341.33333333333337Z" style="stroke: rgb(0, 76, 30); fill: rgb(0, 109, 44);"><title>Beijing -&gt; Beijing: $757.70 million, 17.24% of all donations</title></path><path class="chord" d="M-324.92312629188433,-104.5629305497538A341.33333333333337,341.33333333333337 0 0,1 -265.4746514518423,-214.54988669530292Q 0,0 -13.649692735703628,-341.06030307361385A341.33333333333337,341.33333333333337 0 0,1 -13.649692735703628,-341.06030307361385Q 0,0 -324.92312629188433,-104.5629305497538Z" style="stroke: rgb(177, 98, 42); fill: rgb(253, 141, 60);"><title>Guangdong -&gt; International: $323.32 million, 7.36% of all donations</title></path><path class="chord" d="M336.59271090467155,56.69031143227793A341.33333333333337,341.33333333333337 0 0,1 329.980719341502,87.29930874473965Q 0,0 336.59271090467155,56.69031143227793Z" style="stroke: rgb(23, 79, 126); fill: rgb(33, 113, 181);"><title>Jiangsu -&gt; Jiangsu: $80.55 million, 1.83% of all donations</title></path><path class="chord" d="M259.4003543586526,-221.8555850165822A341.33333333333337,341.33333333333337 0 0,1 294.54788819695716,-172.48184253177868Q 0,0 327.6956997326923,95.51948922154932A341.33333333333337,341.33333333333337 0 0,1 327.67895226962565,95.57692547851109Q 0,0 259.4003543586526,-221.8555850165822Z" style="stroke: rgb(0, 76, 30); fill: rgb(0, 109, 44);"><title>Beijing -&gt; Jiangsu: $156.05 million, 3.55% of all donations</title></path><path class="chord" d="M-265.4746514518423,-214.54988669530292A341.33333333333337,341.33333333333337 0 0,1 -223.99355756995362,-257.5564610169979Q 0,0 -115.57117787837679,-321.1724572379286A341.33333333333337,341.33333333333337 0 0,1 -115.57117787837679,-321.1724572379286Q 0,0 -265.4746514518423,-214.54988669530292Z" style="stroke: rgb(177, 98, 42); fill: rgb(253, 141, 60);"><title>Guangdong -&gt; Guizhou: $153.85 million, 3.50% of all donations</title></path><path class="chord" d="M268.95552093813836,210.16986511233978A341.33333333333337,341.33333333333337 0 0,1 253.67970388576853,228.3748065809214Q 0,0 268.95552093813836,210.16986511233978Z" style="stroke: rgb(151, 50, 0); fill: rgb(217, 72, 1);"><title>Hubei -&gt; Hubei: $61.12 million, 1.39% of all donations</title></path><path class="chord" d="M294.54788819695716,-172.48184253177868A341.33333333333337,341.33333333333337 0 0,1 313.6393751478752,-134.68031333975597Q 0,0 338.8136041820083,41.39789929020407A341.33333333333337,341.33333333333337 0 0,1 338.5904804462653,43.184846828624096Q 0,0 294.54788819695716,-172.48184253177868Z" style="stroke: rgb(0, 76, 30); fill: rgb(0, 109, 44);"><title>Beijing -&gt; Shanghai: $108.97 million, 2.48% of all donations</title></path><path class="chord" d="M-223.99355756995362,-257.5564610169979A341.33333333333337,341.33333333333337 0 0,1 -205.27623427047425,-272.7088412358093Q 0,0 313.6393751478752,-134.68031333975597A341.33333333333337,341.33333333333337 0 0,1 316.6332332379487,-127.48270492002939Q 0,0 -223.99355756995362,-257.5564610169979Z" style="stroke: rgb(177, 98, 42); fill: rgb(253, 141, 60);"><title>Guangdong -&gt; Beijing: $61.94 million, 1.41% of all donations</title></path><path class="chord" d="M323.4326224248077,109.08612742166741A341.33333333333337,341.33333333333337 0 0,1 320.62789798872217,117.07346187662695Q 0,0 323.4326224248077,109.08612742166741Z" style="stroke: rgb(46, 102, 138); fill: rgb(66, 146, 198);"><title>Zhejiang -&gt; Zhejiang: $21.77 million, 0.50% of all donations</title></path><path class="chord" d="M340.2595694597369,27.05309290116317A341.33333333333337,341.33333333333337 0 0,1 339.48713533969914,35.45319990197304Q 0,0 340.2595694597369,27.05309290116317Z" style="stroke: rgb(5, 48, 103); fill: rgb(8, 69, 148);"><title>Shanghai -&gt; Shanghai: $21.69 million, 0.49% of all donations</title></path><path class="chord" d="M-48.27609696880369,-337.9021498983147A341.33333333333337,341.33333333333337 0 0,1 -40.86176675461701,-338.87868103811985Q 0,0 -48.27609696880369,-337.9021498983147Z" style="stroke: rgb(177, 142, 64); fill: rgb(254, 204, 92);"><title>Ningxia -&gt; Ningxia: $19.23 million, 0.44% of all donations</title></path><path class="chord" d="M-137.6633384381096,-312.3415593457249A341.33333333333337,341.33333333333337 0 0,1 -132.358656641567,-314.62617573317743Q 0,0 -137.6633384381096,-312.3415593457249Z" style="stroke: rgb(81, 74, 123); fill: rgb(117, 107, 177);"><title>Sichuan -&gt; Sichuan: $14.85 million, 0.34% of all donations</title></path><path class="chord" d="M331.19747375407616,-82.56317474130054A341.33333333333337,341.33333333333337 0 0,1 332.4654199717119,-77.2993464880376Q 0,0 331.19747375407616,-82.56317474130054Z" style="stroke: rgb(34, 114, 58); fill: rgb(49, 163, 84);"><title>Tianjin -&gt; Tianjin: $13.92 million, 0.32% of all donations</title></path><path class="chord" d="M339.48713533969914,35.45319990197304A341.33333333333337,341.33333333333337 0 0,1 338.8136041820083,41.39789929020407Q 0,0 320.62789798872217,117.07346187662695A341.33333333333337,341.33333333333337 0 0,1 319.48439712093665,120.1589132803561Q 0,0 339.48713533969914,35.45319990197304Z" style="stroke: rgb(5, 48, 103); fill: rgb(8, 69, 148);"><title>Shanghai -&gt; Zhejiang: $15.38 million, 0.35% of all donations</title></path><path class="chord" d="M304.9946111281923,153.25381439692532A341.33333333333337,341.33333333333337 0 0,1 302.0390472776868,158.99955460324963Q 0,0 327.3810103746649,-96.59253848257643A341.33333333333337,341.33333333333337 0 0,1 327.55151007618497,-96.01277358380688Q 0,0 304.9946111281923,153.25381439692532Z" style="stroke: rgb(110, 141, 157); fill: rgb(158, 202, 225);"><title>Fujian -&gt; Beijing: $16.62 million, 0.38% of all donations</title></path><path class="chord" d="M316.6332332379487,-127.48270492002939A341.33333333333337,341.33333333333337 0 0,1 318.67300585429126,-122.2945615480726Q 0,0 -101.49344459538807,-325.89496029949186A341.33333333333337,341.33333333333337 0 0,1 -101.49344459538807,-325.89496029949186Q 0,0 316.6332332379487,-127.48270492002939Z" style="stroke: rgb(0, 76, 30); fill: rgb(0, 109, 44);"><title>Beijing -&gt; Yunnan: $14.34 million, 0.33% of all donations</title></path><path class="chord" d="M329.980719341502,87.29930874473965A341.33333333333337,341.33333333333337 0 0,1 328.7787485504063,91.72229252517164Q 0,0 -13.649692735703628,-341.06030307361385A341.33333333333337,341.33333333333337 0 0,1 -13.649692735703628,-341.06030307361385Q 0,0 329.980719341502,87.29930874473965Z" style="stroke: rgb(23, 79, 126); fill: rgb(33, 113, 181);"><title>Jiangsu -&gt; International: $11.79 million, 0.27% of all donations</title></path><path class="chord" d="M244.21887171740687,238.46506482401412A341.33333333333337,341.33333333333337 0 0,1 242.70930654324172,240.00132699996306Q 0,0 244.21887171740687,238.46506482401412Z" style="stroke: rgb(168, 73, 13); fill: rgb(241, 105, 19);"><title>Hunan -&gt; Hunan: $5.54 million, 0.13% of all donations</title></path><path class="chord" d="M328.7787485504063,91.72229252517164A341.33333333333337,341.33333333333337 0 0,1 327.7959730745969,95.1748101155061Q 0,0 -202.6560441153784,-274.6615594289639A341.33333333333337,341.33333333333337 0 0,1 -202.61993584468573,-274.6881978584808Q 0,0 328.7787485504063,91.72229252517164Z" style="stroke: rgb(23, 79, 126); fill: rgb(33, 113, 181);"><title>Jiangsu -&gt; Guangdong: $9.23 million, 0.21% of all donations</title></path><path class="chord" d="M318.67300585429126,-122.2945615480726A341.33333333333337,341.33333333333337 0 0,1 319.9477433378973,-118.91966186224836Q 0,0 285.1543258913073,187.60451718953513A341.33333333333337,341.33333333333337 0 0,1 285.1543258913073,187.60451718953513Q 0,0 318.67300585429126,-122.2945615480726Z" style="stroke: rgb(0, 76, 30); fill: rgb(0, 109, 44);"><title>Beijing -&gt; Shandong: $9.28 million, 0.21% of all donations</title></path><path class="chord" d="M341.1916737010805,9.832916225611418A341.33333333333337,341.33333333333337 0 0,1 341.0692332693942,13.424699679025892Q 0,0 327.63090471467996,-95.74149946749722A341.33333333333337,341.33333333333337 0 0,1 327.63090471467996,-95.74149946749722Q 0,0 341.1916737010805,9.832916225611418Z" style="stroke: rgb(177, 156, 147); fill: rgb(254, 224, 210);"><title>Heilongjiang -&gt; Beijing: $9.24 million, 0.21% of all donations</title></path><path class="chord" d="M-191.4732633663634,-282.57111292607334A341.33333333333337,341.33333333333337 0 0,1 -188.49102611872473,-284.56910850820526Q 0,0 -202.61993584468573,-274.6881978584808A341.33333333333337,341.33333333333337 0 0,1 -202.61993584468573,-274.6881978584808Q 0,0 -191.4732633663634,-282.57111292607334Z" style="stroke: rgb(177, 121, 74); fill: rgb(253, 174, 107);"><title>Guangxi -&gt; Guangdong: $9.23 million, 0.21% of all donations</title></path><path class="chord" d="M-132.358656641567,-314.62617573317743A341.33333333333337,341.33333333333337 0 0,1 -129.042582498165,-316.00072206665726Q 0,0 -150.04355344771605,-306.58665416685517A341.33333333333337,341.33333333333337 0 0,1 -150.04355344771605,-306.58665416685517Q 0,0 -132.358656641567,-314.62617573317743Z" style="stroke: rgb(81, 74, 123); fill: rgb(117, 107, 177);"><title>Sichuan -&gt; Chongqing: $9.23 million, 0.21% of all donations</title></path><path class="chord" d="M319.9477433378973,-118.91966186224836A341.33333333333337,341.33333333333337 0 0,1 321.125921520866,-115.70041906501072Q 0,0 253.5595818377415,228.5081681312818A341.33333333333337,341.33333333333337 0 0,1 253.5595818377415,228.5081681312818Q 0,0 319.9477433378973,-118.91966186224836Z" style="stroke: rgb(0, 76, 30); fill: rgb(0, 109, 44);"><title>Beijing -&gt; Hubei: $8.82 million, 0.20% of all donations</title></path><path class="chord" d="M-151.51959367646825,-305.85986525950483A341.33333333333337,341.33333333333337 0 0,1 -150.04355344771605,-306.58665416685517Q 0,0 -151.51959367646825,-305.85986525950483Z" style="stroke: rgb(58, 27, 100); fill: rgb(84, 39, 143);"><title>Chongqing -&gt; Chongqing: $4.23 million, 0.10% of all donations</title></path><path class="chord" d="M321.125921520866,-115.70041906501072A341.33333333333337,341.33333333333337 0 0,1 322.1393853335265,-112.84795461762795Q 0,0 -188.49102611872473,-284.56910850820526A341.33333333333337,341.33333333333337 0 0,1 -188.49102611872473,-284.56910850820526Q 0,0 321.125921520866,-115.70041906501072Z" style="stroke: rgb(0, 76, 30); fill: rgb(0, 109, 44);"><title>Beijing -&gt; Guangxi: $7.78 million, 0.18% of all donations</title></path><path class="chord" d="M324.07426227777006,-107.16490551278231A341.33333333333337,341.33333333333337 0 0,1 325.0009854888088,-104.32067808324277Q 0,0 318.50358514586605,122.735124123759A341.33333333333337,341.33333333333337 0 0,1 318.4949792745518,122.75745444309004Q 0,0 324.07426227777006,-107.16490551278231Z" style="stroke: rgb(0, 76, 30); fill: rgb(0, 109, 44);"><title>Beijing -&gt; Zhejiang: $7.69 million, 0.18% of all donations</title></path><path class="chord" d="M322.1393853335265,-112.84795461762795A341.33333333333337,341.33333333333337 0 0,1 323.1217725703582,-110.0034751061719Q 0,0 -115.57117787837679,-321.1724572379286A341.33333333333337,341.33333333333337 0 0,1 -115.57117787837679,-321.1724572379286Q 0,0 322.1393853335265,-112.84795461762795Z" style="stroke: rgb(0, 76, 30); fill: rgb(0, 109, 44);"><title>Beijing -&gt; Guizhou: $7.74 million, 0.18% of all donations</title></path><path class="chord" d="M323.1217725703582,-110.0034751061719A341.33333333333337,341.33333333333337 0 0,1 324.07426227777006,-107.16490551278231Q 0,0 338.3314138705171,-45.16966717633992A341.33333333333337,341.33333333333337 0 0,1 338.3314138705171,-45.16966717633992Q 0,0 323.1217725703582,-110.0034751061719Z" style="stroke: rgb(0, 76, 30); fill: rgb(0, 109, 44);"><title>Beijing -&gt; Shanxi: $7.70 million, 0.18% of all donations</title></path><path class="chord" d="M325.0009854888088,-104.32067808324277A341.33333333333337,341.33333333333337 0 0,1 325.90274695869454,-101.46843829103516Q 0,0 -150.04355344771605,-306.58665416685517A341.33333333333337,341.33333333333337 0 0,1 -150.04355344771605,-306.58665416685517Q 0,0 325.0009854888088,-104.32067808324277Z" style="stroke: rgb(0, 76, 30); fill: rgb(0, 109, 44);"><title>Beijing -&gt; Chongqing: $7.69 million, 0.18% of all donations</title></path><path class="chord" d="M313.30155608396734,135.46431042827896A341.33333333333337,341.33333333333337 0 0,1 312.1023465565798,138.20481076402893Q 0,0 253.5595818377415,228.5081681312818A341.33333333333337,341.33333333333337 0 0,1 253.5595818377415,228.5081681312818Q 0,0 313.30155608396734,135.46431042827896Z" style="stroke: rgb(74, 121, 149); fill: rgb(107, 174, 214);"><title>Anhui -&gt; Hubei: $7.69 million, 0.18% of all donations</title></path><path class="chord" d="M295.13906990544666,171.46828820453166A341.33333333333337,341.33333333333337 0 0,1 293.62502731429396,174.04823405919578Q 0,0 340.8862370124778,-17.464760517031525A341.33333333333337,341.33333333333337 0 0,1 340.8862370124778,-17.464760517031525Q 0,0 295.13906990544666,171.46828820453166Z" style="stroke: rgb(138, 153, 167); fill: rgb(198, 219, 239);"><title>Jiangxi -&gt; Liaoning: $7.69 million, 0.18% of all donations</title></path><path class="chord" d="M312.1023465565798,138.20481076402893A341.33333333333337,341.33333333333337 0 0,1 310.87916596960827,140.93469626208173Q 0,0 -202.61993584468573,-274.6881978584808A341.33333333333337,341.33333333333337 0 0,1 -202.61993584468573,-274.6881978584808Q 0,0 312.1023465565798,138.20481076402893Z" style="stroke: rgb(74, 121, 149); fill: rgb(107, 174, 214);"><title>Anhui -&gt; Guangdong: $7.69 million, 0.18% of all donations</title></path><path class="chord" d="M-102.63526053897893,-325.53716798322796A341.33333333333337,341.33333333333337 0 0,1 -101.49344459538807,-325.89496029949186Q 0,0 -102.63526053897893,-325.53716798322796Z" style="stroke: rgb(142, 140, 158); fill: rgb(203, 201, 226);"><title>Yunnan -&gt; Yunnan: $3.08 million, 0.07% of all donations</title></path><path class="chord" d="M325.90274695869454,-101.46843829103516A341.33333333333337,341.33333333333337 0 0,1 326.58315656894746,-99.25666874274393Q 0,0 -129.042582498165,-316.00072206665726A341.33333333333337,341.33333333333337 0 0,1 -129.042582498165,-316.00072206665726Q 0,0 325.90274695869454,-101.46843829103516Z" style="stroke: rgb(0, 76, 30); fill: rgb(0, 109, 44);"><title>Beijing -&gt; Sichuan: $5.95 million, 0.14% of all donations</title></path><path class="chord" d="M319.48439712093665,120.1589132803561A341.33333333333337,341.33333333333337 0 0,1 318.80914760777193,121.93921373393529Q 0,0 -13.649692735703628,-341.06030307361385A341.33333333333337,341.33333333333337 0 0,1 -13.649692735703628,-341.06030307361385Q 0,0 319.48439712093665,120.1589132803561Z" style="stroke: rgb(46, 102, 138); fill: rgb(66, 146, 198);"><title>Zhejiang -&gt; International: $4.90 million, 0.11% of all donations</title></path><path class="chord" d="M335.4542722502771,-63.07832966622898A341.33333333333337,341.33333333333337 0 0,1 335.7813196711539,-61.3135368768009Q 0,0 327.61874513009025,-95.78310019951037A341.33333333333337,341.33333333333337 0 0,1 327.6278159380544,-95.75206874060108Q 0,0 335.4542722502771,-63.07832966622898Z" style="stroke: rgb(81, 137, 82); fill: rgb(116, 196, 118);"><title>Hebei -&gt; Beijing: $4.62 million, 0.11% of all donations</title></path><path class="chord" d="M286.1368653288427,186.10249526599097A341.33333333333337,341.33333333333337 0 0,1 285.1543258913073,187.60451718953513Q 0,0 -202.61993584468573,-274.6881978584808A341.33333333333337,341.33333333333337 0 0,1 -202.61993584468573,-274.6881978584808Q 0,0 286.1368653288427,186.10249526599097Z" style="stroke: rgb(167, 170, 178); fill: rgb(239, 243, 255);"><title>Shandong -&gt; Guangdong: $4.62 million, 0.11% of all donations</title></path><path class="chord" d="M335.7813196711539,-61.3135368768009A341.33333333333337,341.33333333333337 0 0,1 336.099082752617,-59.54704877064831Q 0,0 -101.49344459538807,-325.89496029949186A341.33333333333337,341.33333333333337 0 0,1 -101.49344459538807,-325.89496029949186Q 0,0 335.7813196711539,-61.3135368768009Z" style="stroke: rgb(81, 137, 82); fill: rgb(116, 196, 118);"><title>Hebei -&gt; Yunnan: $4.62 million, 0.11% of all donations</title></path><path class="chord" d="M326.58315656894746,-99.25666874274393A341.33333333333337,341.33333333333337 0 0,1 327.0376843808329,-97.74864418122225Q 0,0 332.6634842074001,-76.44246672784283A341.33333333333337,341.33333333333337 0 0,1 332.6634842074001,-76.44246672784283Q 0,0 326.58315656894746,-99.25666874274393Z" style="stroke: rgb(0, 76, 30); fill: rgb(0, 109, 44);"><title>Beijing -&gt; Tianjin: $4.05 million, 0.09% of all donations</title></path><path class="chord" d="M-116.30270371803324,-320.9082821497754A341.33333333333337,341.33333333333337 0 0,1 -115.57117787837679,-321.1724572379286Q 0,0 -116.30270371803324,-320.9082821497754Z" style="stroke: rgb(110, 107, 140); fill: rgb(158, 154, 200);"><title>Guizhou -&gt; Guizhou: $2.00 million, 0.05% of all donations</title></path><path class="chord" d="M-204.2844716950337,-273.4525535970097A341.33333333333337,341.33333333333337 0 0,1 -203.32461615168475,-274.1670018642188Q 0,0 253.67970388576853,228.3748065809214A341.33333333333337,341.33333333333337 0 0,1 253.5595818377415,228.5081681312818Q 0,0 -204.2844716950337,-273.4525535970097Z" style="stroke: rgb(177, 98, 42); fill: rgb(253, 141, 60);"><title>Guangdong -&gt; Hubei: $3.08 million, 0.07% of all donations</title></path><path class="chord" d="M-205.27623427047425,-272.7088412358093A341.33333333333337,341.33333333333337 0 0,1 -204.2844716950337,-273.4525535970097Q 0,0 241.7693638489957,240.9481669332564A341.33333333333337,341.33333333333337 0 0,1 241.7693638489957,240.9481669332564Q 0,0 -205.27623427047425,-272.7088412358093Z" style="stroke: rgb(177, 98, 42); fill: rgb(253, 141, 60);"><title>Guangdong -&gt; Hunan: $3.19 million, 0.07% of all donations</title></path><path class="chord" d="M327.0376843808329,-97.74864418122225A341.33333333333337,341.33333333333337 0 0,1 327.3810103746649,-96.59253848257643Q 0,0 340.8862370124778,-17.464760517031525A341.33333333333337,341.33333333333337 0 0,1 340.8862370124778,-17.464760517031525Q 0,0 327.0376843808329,-97.74864418122225Z" style="stroke: rgb(0, 76, 30); fill: rgb(0, 109, 44);"><title>Beijing -&gt; Liaoning: $3.10 million, 0.07% of all donations</title></path><path class="chord" d="M302.0390472776868,158.99955460324963A341.33333333333337,341.33333333333337 0 0,1 301.7598928087653,159.52871696496206Q 0,0 302.0390472776868,158.99955460324963Z" style="stroke: rgb(110, 141, 157); fill: rgb(158, 202, 225);"><title>Fujian -&gt; Fujian: $1.54 million, 0.04% of all donations</title></path><path class="chord" d="M242.70930654324172,240.00132699996306A341.33333333333337,341.33333333333337 0 0,1 241.86647969269973,240.85068080764347Q 0,0 253.5595818377415,228.5081681312818A341.33333333333337,341.33333333333337 0 0,1 253.5595818377415,228.5081681312818Q 0,0 242.70930654324172,240.00132699996306Z" style="stroke: rgb(168, 73, 13); fill: rgb(241, 105, 19);"><title>Hunan -&gt; Hubei: $3.08 million, 0.07% of all donations</title></path><path class="chord" d="M340.8590507709958,-17.987549914877146A341.33333333333337,341.33333333333337 0 0,1 340.8862370124778,-17.464760517031525Q 0,0 340.8590507709958,-17.987549914877146Z" style="stroke: rgb(155, 31, 26); fill: rgb(222, 45, 38);"><title>Liaoning -&gt; Liaoning: $1.35 million, 0.03% of all donations</title></path><path class="chord" d="M277.42405311261905,198.85758521869667A341.33333333333337,341.33333333333337 0 0,1 277.1449381803839,199.24639942903778Q 0,0 277.42405311261905,198.85758521869667Z" style="stroke: rgb(98, 31, 2); fill: rgb(140, 45, 4);"><title>Henan -&gt; Henan: $1.23 million, 0.03% of all donations</title></path><path class="chord" d="M336.099082752617,-59.54704877064831A341.33333333333337,341.33333333333337 0 0,1 336.25447991036646,-58.66318423554428Q 0,0 285.1543258913073,187.60451718953513A341.33333333333337,341.33333333333337 0 0,1 285.1543258913073,187.60451718953513Q 0,0 336.099082752617,-59.54704877064831Z" style="stroke: rgb(81, 137, 82); fill: rgb(116, 196, 118);"><title>Hebei -&gt; Shandong: $2.31 million, 0.05% of all donations</title></path><path class="chord" d="M332.4654199717119,-77.2993464880376A341.33333333333337,341.33333333333337 0 0,1 332.6232422560396,-76.61738154964884Q 0,0 327.53619242909843,96.065014929958A341.33333333333337,341.33333333333337 0 0,1 327.53619242909843,96.065014929958Q 0,0 332.4654199717119,-77.2993464880376Z" style="stroke: rgb(34, 114, 58); fill: rgb(49, 163, 84);"><title>Tianjin -&gt; Jiangsu: $1.80 million, 0.04% of all donations</title></path><path class="chord" d="M-164.62307668237813,-299.0111821789819A341.33333333333337,341.33333333333337 0 0,1 -164.09872436744982,-299.29927013846896Q 0,0 327.53619242909843,96.065014929958A341.33333333333337,341.33333333333337 0 0,1 327.53619242909843,96.065014929958Q 0,0 -164.62307668237813,-299.0111821789819Z" style="stroke: rgb(177, 161, 144); fill: rgb(254, 230, 206);"><title>Hong Kong -&gt; Jiangsu: $1.54 million, 0.04% of all donations</title></path><path class="chord" d="M-203.32461615168475,-274.1670018642188A341.33333333333337,341.33333333333337 0 0,1 -202.84375065420176,-274.52296309230763Q 0,0 338.3314138705171,-45.16966717633992A341.33333333333337,341.33333333333337 0 0,1 338.3314138705171,-45.16966717633992Q 0,0 -203.32461615168475,-274.1670018642188Z" style="stroke: rgb(177, 98, 42); fill: rgb(253, 141, 60);"><title>Guangdong -&gt; Shanxi: $1.54 million, 0.04% of all donations</title></path><path class="chord" d="M-165.14692323836286,-298.7221755902075A341.33333333333337,341.33333333333337 0 0,1 -164.62307668237813,-299.0111821789819Q 0,0 -13.649692735703628,-341.06030307361385A341.33333333333337,341.33333333333337 0 0,1 -13.649692735703628,-341.06030307361385Q 0,0 -165.14692323836286,-298.7221755902075Z" style="stroke: rgb(177, 161, 144); fill: rgb(254, 230, 206);"><title>Hong Kong -&gt; International: $1.54 million, 0.04% of all donations</title></path><path class="chord" d="M293.62502731429396,174.04823405919578A341.33333333333337,341.33333333333337 0 0,1 293.3501012323758,174.51121038890128Q 0,0 253.5595818377415,228.5081681312818A341.33333333333337,341.33333333333337 0 0,1 253.5595818377415,228.5081681312818Q 0,0 293.62502731429396,174.04823405919578Z" style="stroke: rgb(138, 153, 167); fill: rgb(198, 219, 239);"><title>Jiangxi -&gt; Hubei: $1.38 million, 0.03% of all donations</title></path><path class="chord" d="M-164.09872436744982,-299.29927013846896A341.33333333333337,341.33333333333337 0 0,1 -163.62952652889638,-299.5560423232582Q 0,0 -202.61993584468573,-274.6881978584808A341.33333333333337,341.33333333333337 0 0,1 -202.61993584468573,-274.6881978584808Q 0,0 -164.09872436744982,-299.29927013846896Z" style="stroke: rgb(177, 161, 144); fill: rgb(254, 230, 206);"><title>Hong Kong -&gt; Guangdong: $1.38 million, 0.03% of all donations</title></path><path class="chord" d="M327.55151007618497,-96.01277358380688A341.33333333333337,341.33333333333337 0 0,1 327.61874513009025,-95.78310019951037Q 0,0 -176.96052422313974,-291.87911420846143A341.33333333333337,341.33333333333337 0 0,1 -176.96052422313974,-291.87911420846143Q 0,0 327.55151007618497,-96.01277358380688Z" style="stroke: rgb(0, 76, 30); fill: rgb(0, 109, 44);"><title>Beijing -&gt; Hainan: $0.62 million, 0.01% of all donations</title></path><path class="chord" d="M332.6232422560396,-76.61738154964884A341.33333333333337,341.33333333333337 0 0,1 332.6634842074001,-76.44246672784283Q 0,0 -129.042582498165,-316.00072206665726A341.33333333333337,341.33333333333337 0 0,1 -129.042582498165,-316.00072206665726Q 0,0 332.6232422560396,-76.61738154964884Z" style="stroke: rgb(34, 114, 58); fill: rgb(49, 163, 84);"><title>Tianjin -&gt; Sichuan: $0.46 million, 0.01% of all donations</title></path><path class="chord" d="M-202.84375065420176,-274.52296309230763A341.33333333333337,341.33333333333337 0 0,1 -202.69936941731333,-274.62958704820574Q 0,0 -88.37993818794556,-329.692934365205A341.33333333333337,341.33333333333337 0 0,1 -88.37993818794556,-329.692934365205Q 0,0 -202.84375065420176,-274.52296309230763Z" style="stroke: rgb(177, 98, 42); fill: rgb(253, 141, 60);"><title>Guangdong -&gt; Shaanxi: $0.46 million, 0.01% of all donations</title></path><path class="chord" d="M318.80914760777193,121.93921373393529A341.33333333333337,341.33333333333337 0 0,1 318.76638158760124,122.05096646070555Q 0,0 285.1543258913073,187.60451718953513A341.33333333333337,341.33333333333337 0 0,1 285.1543258913073,187.60451718953513Q 0,0 318.80914760777193,121.93921373393529Z" style="stroke: rgb(46, 102, 138); fill: rgb(66, 146, 198);"><title>Zhejiang -&gt; Shandong: $0.31 million, 0.01% of all donations</title></path><path class="chord" d="M318.7253607262856,122.15804874973891A341.33333333333337,341.33333333333337 0 0,1 318.68430389312067,122.26511725182128Q 0,0 -115.57117787837679,-321.1724572379286A341.33333333333337,341.33333333333337 0 0,1 -115.57117787837679,-321.1724572379286Q 0,0 318.7253607262856,122.15804874973891Z" style="stroke: rgb(46, 102, 138); fill: rgb(66, 146, 198);"><title>Zhejiang -&gt; Guizhou: $0.29 million, 0.01% of all donations</title></path><path class="chord" d="M318.76638158760124,122.05096646070555A341.33333333333337,341.33333333333337 0 0,1 318.7253607262856,122.15804874973891Q 0,0 -101.49344459538807,-325.89496029949186A341.33333333333337,341.33333333333337 0 0,1 -101.49344459538807,-325.89496029949186Q 0,0 318.76638158760124,122.05096646070555Z" style="stroke: rgb(46, 102, 138); fill: rgb(66, 146, 198);"><title>Zhejiang -&gt; Yunnan: $0.29 million, 0.01% of all donations</title></path><path class="chord" d="M318.68430389312067,122.26511725182128A341.33333333333337,341.33333333333337 0 0,1 318.6467858074289,122.36286339833254Q 0,0 253.5595818377415,228.5081681312818A341.33333333333337,341.33333333333337 0 0,1 253.5595818377415,228.5081681312818Q 0,0 318.68430389312067,122.26511725182128Z" style="stroke: rgb(46, 102, 138); fill: rgb(66, 146, 198);"><title>Zhejiang -&gt; Hubei: $0.27 million, 0.01% of all donations</title></path><path class="chord" d="M318.5752398507961,122.54901467760646A341.33333333333337,341.33333333333337 0 0,1 318.5394260903403,122.64207463379387Q 0,0 -88.37993818794556,-329.692934365205A341.33333333333337,341.33333333333337 0 0,1 -88.37993818794556,-329.692934365205Q 0,0 318.5752398507961,122.54901467760646Z" style="stroke: rgb(46, 102, 138); fill: rgb(66, 146, 198);"><title>Zhejiang -&gt; Shaanxi: $0.26 million, 0.01% of all donations</title></path><path class="chord" d="M318.61102642417694,122.45594426313848A341.33333333333337,341.33333333333337 0 0,1 318.5752398507961,122.54901467760646Q 0,0 -75.1250427327836,-332.9634700666755A341.33333333333337,341.33333333333337 0 0,1 -75.1250427327836,-332.9634700666755Q 0,0 318.61102642417694,122.45594426313848Z" style="stroke: rgb(46, 102, 138); fill: rgb(66, 146, 198);"><title>Zhejiang -&gt; Gansu: $0.26 million, 0.01% of all donations</title></path><path class="chord" d="M318.6467858074289,122.36286339833254A341.33333333333337,341.33333333333337 0 0,1 318.61102642417694,122.45594426313848Q 0,0 -40.86176675461701,-338.87868103811985A341.33333333333337,341.33333333333337 0 0,1 -40.86176675461701,-338.87868103811985Q 0,0 318.6467858074289,122.36286339833254Z" style="stroke: rgb(46, 102, 138); fill: rgb(66, 146, 198);"><title>Zhejiang -&gt; Ningxia: $0.26 million, 0.01% of all donations</title></path><path class="chord" d="M318.5394260903403,122.64207463379387A341.33333333333337,341.33333333333337 0 0,1 318.50358514586605,122.735124123759Q 0,0 -129.042582498165,-316.00072206665726A341.33333333333337,341.33333333333337 0 0,1 -129.042582498165,-316.00072206665726Q 0,0 318.5394260903403,122.64207463379387Z" style="stroke: rgb(46, 102, 138); fill: rgb(66, 146, 198);"><title>Zhejiang -&gt; Sichuan: $0.26 million, 0.01% of all donations</title></path><path class="chord" d="M241.86647969269973,240.85068080764347A341.33333333333337,341.33333333333337 0 0,1 241.81159295779833,240.9057864719246Q 0,0 338.3314138705171,-45.16966717633992A341.33333333333337,341.33333333333337 0 0,1 338.3314138705171,-45.16966717633992Q 0,0 241.86647969269973,240.85068080764347Z" style="stroke: rgb(168, 73, 13); fill: rgb(241, 105, 19);"><title>Hunan -&gt; Shanxi: $0.20 million, 0.00% of all donations</title></path><path class="chord" d="M241.81159295779833,240.9057864719246A341.33333333333337,341.33333333333337 0 0,1 241.7693638489957,240.9481669332564Q 0,0 310.87916596960827,140.93469626208173A341.33333333333337,341.33333333333337 0 0,1 310.87916596960827,140.93469626208173Q 0,0 241.81159295779833,240.9057864719246Z" style="stroke: rgb(168, 73, 13); fill: rgb(241, 105, 19);"><title>Hunan -&gt; Anhui: $0.15 million, 0.00% of all donations</title></path><path class="chord" d="M327.6118617521742,95.8066411253353A341.33333333333337,341.33333333333337 0 0,1 327.5950639590915,95.86406268296392Q 0,0 -188.49102611872473,-284.56910850820526A341.33333333333337,341.33333333333337 0 0,1 -188.49102611872473,-284.56910850820526Q 0,0 327.6118617521742,95.8066411253353Z" style="stroke: rgb(23, 79, 126); fill: rgb(33, 113, 181);"><title>Jiangsu -&gt; Guangxi: $0.15 million, 0.00% of all donations</title></path><path class="chord" d="M327.77928602452533,95.23226395343583A341.33333333333337,341.33333333333337 0 0,1 327.76258890433786,95.2897148656165Q 0,0 339.8670897419939,-31.603888285335167A341.33333333333337,341.33333333333337 0 0,1 339.8670897419939,-31.603888285335167Q 0,0 327.77928602452533,95.23226395343583Z" style="stroke: rgb(23, 79, 126); fill: rgb(33, 113, 181);"><title>Jiangsu -&gt; Inner Mongolia: $0.15 million, 0.00% of all donations</title></path><path class="chord" d="M327.64542714290684,95.6917891816566A341.33333333333337,341.33333333333337 0 0,1 327.62864948028454,95.74921662431146Q 0,0 -150.04355344771605,-306.58665416685517A341.33333333333337,341.33333333333337 0 0,1 -150.04355344771605,-306.58665416685517Q 0,0 327.64542714290684,95.6917891816566Z" style="stroke: rgb(23, 79, 126); fill: rgb(33, 113, 181);"><title>Jiangsu -&gt; Chongqing: $0.15 million, 0.00% of all donations</title></path><path class="chord" d="M327.66219473952555,95.634358799135A341.33333333333337,341.33333333333337 0 0,1 327.64542714290684,95.6917891816566Q 0,0 310.87916596960827,140.93469626208173A341.33333333333337,341.33333333333337 0 0,1 310.87916596960827,140.93469626208173Q 0,0 327.66219473952555,95.634358799135Z" style="stroke: rgb(23, 79, 126); fill: rgb(33, 113, 181);"><title>Jiangsu -&gt; Anhui: $0.15 million, 0.00% of all donations</title></path><path class="chord" d="M327.67895226962565,95.57692547851109A341.33333333333337,341.33333333333337 0 0,1 327.66219473952555,95.634358799135Q 0,0 -115.57117787837679,-321.1724572379286A341.33333333333337,341.33333333333337 0 0,1 -115.57117787837679,-321.1724572379286Q 0,0 327.67895226962565,95.57692547851109Z" style="stroke: rgb(23, 79, 126); fill: rgb(33, 113, 181);"><title>Jiangsu -&gt; Guizhou: $0.15 million, 0.00% of all donations</title></path><path class="chord" d="M327.7124371282108,95.46205003001425A341.33333333333337,341.33333333333337 0 0,1 327.6956997326923,95.51948922154932Q 0,0 -101.49344459538807,-325.89496029949186A341.33333333333337,341.33333333333337 0 0,1 -101.49344459538807,-325.89496029949186Q 0,0 327.7124371282108,95.46205003001425Z" style="stroke: rgb(23, 79, 126); fill: rgb(33, 113, 181);"><title>Jiangsu -&gt; Yunnan: $0.15 million, 0.00% of all donations</title></path><path class="chord" d="M327.62864948028454,95.74921662431146A341.33333333333337,341.33333333333337 0 0,1 327.6118617521742,95.8066411253353Q 0,0 293.3501012323758,174.51121038890128A341.33333333333337,341.33333333333337 0 0,1 293.3501012323758,174.51121038890128Q 0,0 327.62864948028454,95.74921662431146Z" style="stroke: rgb(23, 79, 126); fill: rgb(33, 113, 181);"><title>Jiangsu -&gt; Jiangxi: $0.15 million, 0.00% of all donations</title></path><path class="chord" d="M327.74588171454735,95.34716285028307A341.33333333333337,341.33333333333337 0 0,1 327.72916445566716,95.4046079056706Q 0,0 -75.1250427327836,-332.9634700666755A341.33333333333337,341.33333333333337 0 0,1 -75.1250427327836,-332.9634700666755Q 0,0 327.74588171454735,95.34716285028307Z" style="stroke: rgb(23, 79, 126); fill: rgb(33, 113, 181);"><title>Jiangsu -&gt; Gansu: $0.15 million, 0.00% of all donations</title></path><path class="chord" d="M327.76258890433786,95.2897148656165A341.33333333333337,341.33333333333337 0 0,1 327.74588171454735,95.34716285028307Q 0,0 -61.74996323507023,-335.70133524445794A341.33333333333337,341.33333333333337 0 0,1 -61.74996323507023,-335.70133524445794Q 0,0 327.76258890433786,95.2897148656165Z" style="stroke: rgb(23, 79, 126); fill: rgb(33, 113, 181);"><title>Jiangsu -&gt; Qinghai: $0.15 million, 0.00% of all donations</title></path><path class="chord" d="M327.7959730745969,95.1748101155061A341.33333333333337,341.33333333333337 0 0,1 327.77928602452533,95.23226395343583Q 0,0 -40.86176675461701,-338.87868103811985A341.33333333333337,341.33333333333337 0 0,1 -40.86176675461701,-338.87868103811985Q 0,0 327.7959730745969,95.1748101155061Z" style="stroke: rgb(23, 79, 126); fill: rgb(33, 113, 181);"><title>Jiangsu -&gt; Ningxia: $0.15 million, 0.00% of all donations</title></path><path class="chord" d="M327.5950639590915,95.86406268296392A341.33333333333337,341.33333333333337 0 0,1 327.57825610155254,95.92148129543317Q 0,0 -27.277548874810126,-340.2416490846275A341.33333333333337,341.33333333333337 0 0,1 -27.277548874810126,-340.2416490846275Q 0,0 327.5950639590915,95.86406268296392Z" style="stroke: rgb(23, 79, 126); fill: rgb(33, 113, 181);"><title>Jiangsu -&gt; Xinjiang: $0.15 million, 0.00% of all donations</title></path><path class="chord" d="M327.5614381800737,95.97889696097907A341.33333333333337,341.33333333333337 0 0,1 327.54461019517163,96.03630967783762Q 0,0 253.5595818377415,228.5081681312818A341.33333333333337,341.33333333333337 0 0,1 253.5595818377415,228.5081681312818Q 0,0 327.5614381800737,95.97889696097907Z" style="stroke: rgb(23, 79, 126); fill: rgb(33, 113, 181);"><title>Jiangsu -&gt; Hubei: $0.15 million, 0.00% of all donations</title></path><path class="chord" d="M327.57825610155254,95.92148129543317A341.33333333333337,341.33333333333337 0 0,1 327.5614381800737,95.97889696097907Q 0,0 241.7693638489957,240.9481669332564A341.33333333333337,341.33333333333337 0 0,1 241.7693638489957,240.9481669332564Q 0,0 327.57825610155254,95.92148129543317Z" style="stroke: rgb(23, 79, 126); fill: rgb(33, 113, 181);"><title>Jiangsu -&gt; Hunan: $0.15 million, 0.00% of all donations</title></path><path class="chord" d="M327.72916445566716,95.4046079056706A341.33333333333337,341.33333333333337 0 0,1 327.7124371282108,95.46205003001425Q 0,0 -88.37993818794556,-329.692934365205A341.33333333333337,341.33333333333337 0 0,1 -88.37993818794556,-329.692934365205Q 0,0 327.72916445566716,95.4046079056706Z" style="stroke: rgb(23, 79, 126); fill: rgb(33, 113, 181);"><title>Jiangsu -&gt; Shaanxi: $0.15 million, 0.00% of all donations</title></path><path class="chord" d="M-202.69936941731333,-274.62958704820574A341.33333333333337,341.33333333333337 0 0,1 -202.6560441153784,-274.6615594289639Q 0,0 338.5904804462653,43.184846828624096A341.33333333333337,341.33333333333337 0 0,1 338.5904804462653,43.184846828624096Q 0,0 -202.69936941731333,-274.62958704820574Z" style="stroke: rgb(177, 98, 42); fill: rgb(253, 141, 60);"><title>Guangdong -&gt; Shanghai: $0.14 million, 0.00% of all donations</title></path><path class="chord" d="M327.54461019517163,96.03630967783762A341.33333333333337,341.33333333333337 0 0,1 327.53619242909843,96.065014929958Q 0,0 -129.042582498165,-316.00072206665726A341.33333333333337,341.33333333333337 0 0,1 -129.042582498165,-316.00072206665726Q 0,0 327.54461019517163,96.03630967783762Z" style="stroke: rgb(23, 79, 126); fill: rgb(33, 113, 181);"><title>Jiangsu -&gt; Sichuan: $0.08 million, 0.00% of all donations</title></path><path class="chord" d="M318.47883904614065,122.79932216533976A341.33333333333337,341.33333333333337 0 0,1 318.4734577469417,122.8132776012082Q 0,0 -150.04355344771605,-306.58665416685517A341.33333333333337,341.33333333333337 0 0,1 -150.04355344771605,-306.58665416685517Q 0,0 318.47883904614065,122.79932216533976Z" style="stroke: rgb(46, 102, 138); fill: rgb(66, 146, 198);"><title>Zhejiang -&gt; Chongqing: $0.04 million, 0.00% of all donations</title></path><path class="chord" d="M318.4734577469417,122.8132776012082A341.33333333333337,341.33333333333337 0 0,1 318.46807583622893,122.82723280125788Q 0,0 241.7693638489957,240.9481669332564A341.33333333333337,341.33333333333337 0 0,1 241.7693638489957,240.9481669332564Q 0,0 318.4734577469417,122.8132776012082Z" style="stroke: rgb(46, 102, 138); fill: rgb(66, 146, 198);"><title>Zhejiang -&gt; Hunan: $0.04 million, 0.00% of all donations</title></path><path class="chord" d="M318.489599809956,122.7714105862539A341.33333333333337,341.33333333333337 0 0,1 318.48421973381556,122.78536649367939Q 0,0 293.3501012323758,174.51121038890128A341.33333333333337,341.33333333333337 0 0,1 293.3501012323758,174.51121038890128Q 0,0 318.489599809956,122.7714105862539Z" style="stroke: rgb(46, 102, 138); fill: rgb(66, 146, 198);"><title>Zhejiang -&gt; Jiangxi: $0.04 million, 0.00% of all donations</title></path><path class="chord" d="M318.48421973381556,122.78536649367939A341.33333333333337,341.33333333333337 0 0,1 318.47883904614065,122.79932216533976Q 0,0 310.87916596960827,140.93469626208173A341.33333333333337,341.33333333333337 0 0,1 310.87916596960827,140.93469626208173Q 0,0 318.48421973381556,122.78536649367939Z" style="stroke: rgb(46, 102, 138); fill: rgb(66, 146, 198);"><title>Zhejiang -&gt; Anhui: $0.04 million, 0.00% of all donations</title></path><path class="chord" d="M318.4949792745518,122.75745444309004A341.33333333333337,341.33333333333337 0 0,1 318.489599809956,122.7714105862539Q 0,0 -188.49102611872473,-284.56910850820526A341.33333333333337,341.33333333333337 0 0,1 -188.49102611872473,-284.56910850820526Q 0,0 318.4949792745518,122.75745444309004Z" style="stroke: rgb(46, 102, 138); fill: rgb(66, 146, 198);"><title>Zhejiang -&gt; Guangxi: $0.04 million, 0.00% of all donations</title></path><path class="chord" d="M327.6278159380544,-95.75206874060108A341.33333333333337,341.33333333333337 0 0,1 327.62949420726346,-95.74632614328956Q 0,0 341.3119685269324,-3.8189769199101686A341.33333333333337,341.33333333333337 0 0,1 341.3119685269324,-3.8189769199101686Q 0,0 327.6278159380544,-95.75206874060108Z" style="stroke: rgb(0, 76, 30); fill: rgb(0, 109, 44);"><title>Beijing -&gt; Jilin: $0.02 million, 0.00% of all donations</title></path><path class="chord" d="M327.62949420726346,-95.74632614328956A341.33333333333337,341.33333333333337 0 0,1 327.63090471467996,-95.74149946749722Q 0,0 -163.62952652889638,-299.5560423232582A341.33333333333337,341.33333333333337 0 0,1 -163.62952652889638,-299.5560423232582Q 0,0 327.62949420726346,-95.74632614328956Z" style="stroke: rgb(0, 76, 30); fill: rgb(0, 109, 44);"><title>Beijing -&gt; Hong Kong: $0.01 million, 0.00% of all donations</title></path></g></svg>
